<?xml version="1.0" encoding="utf-8"?>
<!-- Generator: Adobe Illustrator 16.0.0, SVG Export Plug-In . SVG Version: 6.00 Build 0)  -->
<!DOCTYPE svg PUBLIC "-//W3C//DTD SVG 1.1//EN" "http://www.w3.org/Graphics/SVG/1.1/DTD/svg11.dtd">
<svg version="1.1" id="Layer_1" xmlns="http://www.w3.org/2000/svg" xmlns:xlink="http://www.w3.org/1999/xlink" x="0px" y="0px"
	 width="194.99px" height="50.998px" viewBox="0 0 194.99 50.998" enable-background="new 0 0 194.99 50.998" xml:space="preserve">
<g>
	<path fill="#FFFFFF" d="M36.132,13.342c0,1.342-0.439,2.37-1.318,3.085s-2.13,1.072-3.753,1.072h-1.336v4.808h-2.101V9.458h3.7
		c1.605,0,2.808,0.328,3.608,0.984S36.132,12.065,36.132,13.342z M29.725,15.733h1.116c1.078,0,1.869-0.188,2.373-0.563
		s0.756-0.961,0.756-1.758c0-0.738-0.226-1.289-0.677-1.652s-1.154-0.545-2.109-0.545h-1.459V15.733z"/>
	<path fill="#FFFFFF" d="M44.098,22.307V9.458h2.101v12.85H44.098z"/>
	<path fill="#FFFFFF" d="M65.696,22.307h-2.575l-6.319-10.239h-0.07l0.044,0.571c0.082,1.09,0.123,2.086,0.123,2.988v6.68h-1.907
		V9.458h2.549l6.302,10.187h0.053c-0.012-0.135-0.035-0.625-0.07-1.472s-0.053-1.507-0.053-1.982V9.458h1.925V22.307z"/>
	<path fill="#FFFFFF" d="M81.758,22.307h-7.269V9.458h7.269v1.775H76.59v3.498h4.843v1.758H76.59v4.034h5.168V22.307z"/>
	<path fill="#FFFFFF" d="M89.935,22.307V9.458h2.101v11.048h5.44v1.802H89.935z"/>
	<path fill="#FFFFFF" d="M113.063,22.307l-1.283-3.568h-4.913l-1.257,3.568h-2.215l4.808-12.902h2.285l4.808,12.902H113.063z
		 M111.226,16.928l-1.204-3.498c-0.088-0.234-0.209-0.604-0.365-1.107s-0.262-0.873-0.321-1.107
		c-0.158,0.721-0.39,1.509-0.694,2.364l-1.16,3.349H111.226z"/>
	<path fill="#FFFFFF" d="M133.096,22.307h-2.575l-6.319-10.239h-0.07l0.044,0.571c0.082,1.09,0.123,2.086,0.123,2.988v6.68h-1.907
		V9.458h2.549l6.302,10.187h0.053c-0.012-0.135-0.035-0.625-0.07-1.472s-0.053-1.507-0.053-1.982V9.458h1.925V22.307z"/>
	<path fill="#FFFFFF" d="M152.339,15.759c0,2.121-0.589,3.743-1.767,4.865s-2.874,1.683-5.089,1.683h-3.595V9.458h3.973
		c2.045,0,3.636,0.551,4.772,1.652S152.339,13.761,152.339,15.759z M150.124,15.83c0-3.076-1.438-4.614-4.315-4.614h-1.819v9.325
		h1.494C148.577,20.541,150.124,18.97,150.124,15.83z"/>
	<path fill="#FFFFFF" d="M167.908,18.818c0,1.143-0.413,2.039-1.239,2.689s-1.966,0.976-3.419,0.976s-2.643-0.226-3.568-0.677V19.82
		c0.586,0.275,1.208,0.492,1.868,0.65s1.273,0.237,1.841,0.237c0.832,0,1.446-0.158,1.841-0.475s0.593-0.741,0.593-1.274
		c0-0.48-0.182-0.888-0.545-1.222s-1.113-0.729-2.25-1.187c-1.172-0.475-1.998-1.017-2.479-1.626s-0.721-1.342-0.721-2.197
		c0-1.072,0.381-1.916,1.143-2.531s1.784-0.923,3.067-0.923c1.23,0,2.455,0.27,3.674,0.809l-0.668,1.714
		c-1.143-0.48-2.162-0.721-3.059-0.721c-0.68,0-1.195,0.148-1.547,0.444s-0.527,0.687-0.527,1.173c0,0.334,0.07,0.62,0.211,0.857
		s0.372,0.461,0.694,0.672s0.902,0.489,1.74,0.835c0.943,0.393,1.635,0.759,2.074,1.099s0.762,0.724,0.967,1.151
		S167.908,18.238,167.908,18.818z"/>
	<path fill="#FFFFFF" d="M38.055,43.907l-3.193-7.91h-0.047c0.031,0.484,0.047,0.98,0.047,1.488v6.422h-0.574v-8.566h0.926
		l3.035,7.535h0.035l3.035-7.535h0.902v8.566h-0.604v-6.492c0-0.453,0.023-0.922,0.07-1.406h-0.047l-3.205,7.898H38.055z"/>
	<path fill="#FFFFFF" d="M54.779,35.341v5.543c0,0.984-0.285,1.754-0.855,2.309s-1.365,0.832-2.385,0.832
		c-0.992,0-1.767-0.278-2.323-0.835s-0.835-1.333-0.835-2.329v-5.52h0.604v5.543c0,0.824,0.229,1.466,0.686,1.925
		s1.104,0.688,1.939,0.688c0.816,0,1.449-0.226,1.898-0.677s0.674-1.077,0.674-1.878v-5.602H54.779z"/>
	<path fill="#FFFFFF" d="M65.68,41.698c0,0.715-0.263,1.281-0.788,1.699s-1.224,0.627-2.095,0.627c-1.047,0-1.85-0.115-2.408-0.346
		v-0.598c0.617,0.262,1.404,0.393,2.361,0.393c0.703,0,1.261-0.161,1.673-0.483s0.618-0.745,0.618-1.269
		c0-0.324-0.068-0.593-0.205-0.806s-0.359-0.407-0.668-0.583s-0.762-0.365-1.359-0.568c-0.875-0.301-1.479-0.626-1.813-0.976
		s-0.501-0.815-0.501-1.397c0-0.641,0.251-1.163,0.753-1.567s1.147-0.606,1.937-0.606c0.805,0,1.561,0.152,2.268,0.457l-0.217,0.516
		c-0.711-0.297-1.391-0.445-2.039-0.445c-0.633,0-1.137,0.146-1.512,0.439s-0.563,0.691-0.563,1.195
		c0,0.316,0.058,0.576,0.173,0.779s0.304,0.386,0.565,0.548s0.711,0.356,1.348,0.583c0.668,0.23,1.17,0.454,1.506,0.671
		s0.581,0.463,0.735,0.738S65.68,41.308,65.68,41.698z"/>
	<path fill="#FFFFFF" d="M71.331,43.907v-8.566h0.598v8.566H71.331z"/>
	<path fill="#FFFFFF" d="M81.85,35.757c-1.074,0-1.92,0.344-2.537,1.031s-0.926,1.629-0.926,2.824c0,1.223,0.291,2.172,0.873,2.848
		s1.414,1.014,2.496,1.014c0.719,0,1.379-0.092,1.98-0.275v0.527c-0.566,0.199-1.273,0.299-2.121,0.299
		c-1.203,0-2.15-0.389-2.842-1.166s-1.037-1.863-1.037-3.258c0-0.871,0.165-1.639,0.495-2.303s0.805-1.177,1.424-1.538
		s1.339-0.542,2.159-0.542c0.836,0,1.584,0.156,2.244,0.469l-0.24,0.539C83.194,35.913,82.538,35.757,81.85,35.757z"/>
	<path fill="#FFFFFF" d="M101.173,41.698c0,0.715-0.263,1.281-0.788,1.699s-1.224,0.627-2.095,0.627
		c-1.047,0-1.85-0.115-2.408-0.346v-0.598c0.617,0.262,1.404,0.393,2.361,0.393c0.703,0,1.261-0.161,1.673-0.483
		s0.618-0.745,0.618-1.269c0-0.324-0.068-0.593-0.205-0.806s-0.359-0.407-0.668-0.583s-0.762-0.365-1.359-0.568
		c-0.875-0.301-1.479-0.626-1.813-0.976s-0.501-0.815-0.501-1.397c0-0.641,0.251-1.163,0.753-1.567s1.147-0.606,1.937-0.606
		c0.805,0,1.561,0.152,2.268,0.457l-0.217,0.516c-0.711-0.297-1.391-0.445-2.039-0.445c-0.633,0-1.137,0.146-1.512,0.439
		s-0.563,0.691-0.563,1.195c0,0.316,0.058,0.576,0.173,0.779s0.304,0.386,0.565,0.548s0.711,0.356,1.348,0.583
		c0.668,0.23,1.17,0.454,1.506,0.671s0.581,0.463,0.735,0.738S101.173,41.308,101.173,41.698z"/>
	<path fill="#FFFFFF" d="M110.479,35.757c-1.074,0-1.92,0.344-2.537,1.031s-0.926,1.629-0.926,2.824
		c0,1.223,0.291,2.172,0.873,2.848s1.414,1.014,2.496,1.014c0.719,0,1.379-0.092,1.98-0.275v0.527
		c-0.566,0.199-1.273,0.299-2.121,0.299c-1.203,0-2.15-0.389-2.842-1.166s-1.037-1.863-1.037-3.258c0-0.871,0.165-1.639,0.495-2.303
		s0.805-1.177,1.424-1.538s1.339-0.542,2.159-0.542c0.836,0,1.584,0.156,2.244,0.469l-0.24,0.539
		C111.823,35.913,111.167,35.757,110.479,35.757z"/>
	<path fill="#FFFFFF" d="M124.322,43.907h-0.604v-4.213h-5.004v4.213h-0.598v-8.566h0.598v3.803h5.004v-3.803h0.604V43.907z"/>
	<path fill="#FFFFFF" d="M137.789,39.612c0,1.359-0.34,2.435-1.02,3.226s-1.617,1.187-2.813,1.187c-1.191,0-2.127-0.396-2.807-1.187
		s-1.02-1.87-1.02-3.237c0-1.363,0.343-2.437,1.028-3.22s1.622-1.175,2.81-1.175c1.195,0,2.131,0.394,2.807,1.181
		S137.789,38.249,137.789,39.612z M130.781,39.612c0,1.227,0.273,2.175,0.82,2.845s1.332,1.005,2.355,1.005
		c1.031,0,1.819-0.332,2.364-0.996s0.817-1.615,0.817-2.854c0-1.234-0.272-2.181-0.817-2.839s-1.329-0.987-2.353-0.987
		c-1.02,0-1.806,0.332-2.358,0.996S130.781,38.39,130.781,39.612z"/>
	<path fill="#FFFFFF" d="M150.798,39.612c0,1.359-0.34,2.435-1.02,3.226s-1.617,1.187-2.813,1.187c-1.191,0-2.127-0.396-2.807-1.187
		s-1.02-1.87-1.02-3.237c0-1.363,0.343-2.437,1.028-3.22s1.622-1.175,2.81-1.175c1.195,0,2.131,0.394,2.807,1.181
		S150.798,38.249,150.798,39.612z M143.791,39.612c0,1.227,0.273,2.175,0.82,2.845s1.332,1.005,2.355,1.005
		c1.031,0,1.819-0.332,2.364-0.996s0.817-1.615,0.817-2.854c0-1.234-0.272-2.181-0.817-2.839s-1.329-0.987-2.353-0.987
		c-1.02,0-1.806,0.332-2.358,0.996S143.791,38.39,143.791,39.612z"/>
	<path fill="#FFFFFF" d="M156.607,43.907v-8.566h0.598v8.004h4.084v0.563H156.607z"/>
	<line fill="none" stroke="#A2C4C9" stroke-miterlimit="10" x1="26.647" y1="28.648" x2="167.98" y2="28.648"/>
</g>
</svg>
